<svg width="201" height="48" viewBox="0 0 201 48" fill="none" xmlns="http://www.w3.org/2000/svg">
<path d="M38.2874 15.2273V12.7273H55.7419V15.2273H48.4238V36H45.6056V15.2273H38.2874ZM64.5147 36.3636C62.8329 36.3636 61.3821 35.9924 60.1624 35.25C58.9503 34.5 58.0147 33.4545 57.3556 32.1136C56.7041 30.7652 56.3783 29.197 56.3783 27.4091C56.3783 25.6212 56.7041 24.0455 57.3556 22.6818C58.0147 21.3106 58.9313 20.2424 60.1056 19.4773C61.2874 18.7045 62.6662 18.3182 64.2419 18.3182C65.151 18.3182 66.0488 18.4697 66.9351 18.7727C67.8215 19.0758 68.6283 19.5682 69.3556 20.25C70.0829 20.9242 70.6624 21.8182 71.0942 22.9318C71.526 24.0455 71.7419 25.4167 71.7419 27.0455V28.1818H58.2874V25.8636H69.0147C69.0147 24.8788 68.8177 24 68.4238 23.2273C68.0374 22.4545 67.4844 21.8447 66.7647 21.3977C66.0525 20.9508 65.2116 20.7273 64.2419 20.7273C63.1738 20.7273 62.2495 20.9924 61.4692 21.5227C60.6965 22.0455 60.1018 22.7273 59.6851 23.5682C59.2685 24.4091 59.0601 25.3106 59.0601 26.2727V27.8182C59.0601 29.1364 59.2874 30.2538 59.7419 31.1705C60.2041 32.0795 60.8442 32.7727 61.6624 33.25C62.4806 33.7197 63.4313 33.9545 64.5147 33.9545C65.2192 33.9545 65.8556 33.8561 66.4238 33.6591C66.9995 33.4545 67.4957 33.1515 67.9124 32.75C68.3291 32.3409 68.651 31.8333 68.8783 31.2273L71.4692 31.9545C71.1965 32.8333 70.7382 33.6061 70.0942 34.2727C69.4503 34.9318 68.6548 35.447 67.7079 35.8182C66.7609 36.1818 65.6965 36.3636 64.5147 36.3636ZM80.9579 36.4091C79.8518 36.4091 78.848 36.2008 77.9465 35.7841C77.045 35.3598 76.3291 34.75 75.7988 33.9545C75.2685 33.1515 75.0033 32.1818 75.0033 31.0455C75.0033 30.0455 75.2003 29.2348 75.5942 28.6136C75.9882 27.9848 76.5147 27.4924 77.1738 27.1364C77.8329 26.7803 78.5601 26.5152 79.3556 26.3409C80.1586 26.1591 80.9654 26.0152 81.776 25.9091C82.8366 25.7727 83.6965 25.6705 84.3556 25.6023C85.0222 25.5265 85.5071 25.4015 85.8101 25.2273C86.1207 25.053 86.276 24.75 86.276 24.3182V24.2273C86.276 23.1061 85.9692 22.2348 85.3556 21.6136C84.7495 20.9924 83.8291 20.6818 82.5942 20.6818C81.3139 20.6818 80.3101 20.9621 79.5829 21.5227C78.8556 22.0833 78.3442 22.6818 78.0488 23.3182L75.5033 22.4091C75.9579 21.3485 76.5639 20.5227 77.3215 19.9318C78.0866 19.3333 78.92 18.9167 79.8215 18.6818C80.7306 18.4394 81.6245 18.3182 82.5033 18.3182C83.0639 18.3182 83.7079 18.3864 84.4351 18.5227C85.17 18.6515 85.8783 18.9205 86.5601 19.3295C87.2495 19.7386 87.8215 20.3561 88.276 21.1818C88.7306 22.0076 88.9579 23.1136 88.9579 24.5V36H86.276V33.6364H86.1397C85.9579 34.0152 85.6548 34.4205 85.2306 34.8523C84.8063 35.2841 84.2419 35.6515 83.5374 35.9545C82.8329 36.2576 81.973 36.4091 80.9579 36.4091ZM81.3669 34C82.4275 34 83.3215 33.7917 84.0488 33.375C84.7836 32.9583 85.3366 32.4205 85.7079 31.7614C86.0866 31.1023 86.276 30.4091 86.276 29.6818V27.2273C86.1624 27.3636 85.9124 27.4886 85.526 27.6023C85.1472 27.7083 84.7079 27.803 84.2079 27.8864C83.7154 27.9621 83.2344 28.0303 82.7647 28.0909C82.3025 28.1439 81.9275 28.1894 81.6397 28.2273C80.9427 28.3182 80.2912 28.4659 79.6851 28.6705C79.0866 28.8674 78.6018 29.1667 78.2306 29.5682C77.8669 29.9621 77.6851 30.5 77.6851 31.1818C77.6851 32.1136 78.0298 32.8182 78.7192 33.2955C79.4162 33.7652 80.2988 34 81.3669 34ZM93.8527 36V18.5455H96.4436V21.2727H96.6709C97.0346 20.3409 97.6217 19.6174 98.4323 19.1023C99.2429 18.5795 100.216 18.3182 101.353 18.3182C102.504 18.3182 103.463 18.5795 104.228 19.1023C105 19.6174 105.603 20.3409 106.035 21.2727H106.216C106.663 20.3712 107.334 19.6553 108.228 19.125C109.122 18.5871 110.194 18.3182 111.444 18.3182C113.004 18.3182 114.281 18.8068 115.273 19.7841C116.266 20.7538 116.762 22.2652 116.762 24.3182V36H114.08V24.3182C114.08 23.0303 113.728 22.1098 113.023 21.5568C112.319 21.0038 111.489 20.7273 110.535 20.7273C109.307 20.7273 108.357 21.0985 107.682 21.8409C107.008 22.5758 106.671 23.5076 106.671 24.6364V36H103.944V24.0455C103.944 23.053 103.622 22.2538 102.978 21.6477C102.334 21.0341 101.504 20.7273 100.489 20.7273C99.7921 20.7273 99.1406 20.9129 98.5346 21.2841C97.9361 21.6553 97.4512 22.1705 97.08 22.8295C96.7164 23.4811 96.5346 24.2348 96.5346 25.0909V36H93.8527Z" fill="#2F2E41"/>
<path d="M120.711 36V12.7273H137.074V17.8182H127.029V21.8182H136.074V26.9091H127.029V36H120.711ZM145.762 12.7273V36H139.489V12.7273H145.762ZM157.367 36.3182C155.473 36.3182 153.852 35.9432 152.503 35.1932C151.155 34.4356 150.121 33.3826 149.401 32.0341C148.681 30.678 148.321 29.1061 148.321 27.3182C148.321 25.5303 148.681 23.9621 149.401 22.6136C150.121 21.2576 151.155 20.2045 152.503 19.4545C153.852 18.697 155.473 18.3182 157.367 18.3182C159.261 18.3182 160.882 18.697 162.231 19.4545C163.579 20.2045 164.613 21.2576 165.333 22.6136C166.053 23.9621 166.412 25.5303 166.412 27.3182C166.412 29.1061 166.053 30.678 165.333 32.0341C164.613 33.3826 163.579 34.4356 162.231 35.1932C160.882 35.9432 159.261 36.3182 157.367 36.3182ZM157.412 31.6818C157.943 31.6818 158.401 31.5038 158.787 31.1477C159.174 30.7917 159.473 30.2841 159.685 29.625C159.897 28.9659 160.003 28.1818 160.003 27.2727C160.003 26.3561 159.897 25.572 159.685 24.9205C159.473 24.2614 159.174 23.7538 158.787 23.3977C158.401 23.0417 157.943 22.8636 157.412 22.8636C156.852 22.8636 156.371 23.0417 155.969 23.3977C155.568 23.7538 155.261 24.2614 155.049 24.9205C154.837 25.572 154.731 26.3561 154.731 27.2727C154.731 28.1818 154.837 28.9659 155.049 29.625C155.261 30.2841 155.568 30.7917 155.969 31.1477C156.371 31.5038 156.852 31.6818 157.412 31.6818ZM171.736 36L167.373 18.5455H173.645L175.645 29.1818H175.782L178.009 18.5455H184.1L186.418 29.0909H186.554L188.464 18.5455H194.736L190.373 36H183.6L181.145 26.6364H180.964L178.509 36H171.736Z" fill="#2F2E41"/>
<path d="M14.5863 12.102C13.2018 12.3633 11.9655 12.9444 10.9397 13.8258C9.61761 14.9607 8.7986 16.3141 8.39689 18.0379L8.29158 18.4825L8.27598 23.7476C8.26428 29.4027 8.26038 29.391 8.46319 30.1906C8.8181 31.6024 9.51231 32.8114 10.5887 33.8918C11.6418 34.9487 13.0419 35.7014 14.6253 36.0563L15.0348 36.1499H20.1245H25.2141L25.6626 36.0602C27.8271 35.6195 29.6134 34.3559 30.8653 32.3863C31.2982 31.6999 31.6531 30.7717 31.852 29.7928L31.9612 29.2467V23.9426V18.6385L31.8481 18.1315C31.5049 16.5715 30.6976 15.1245 29.5666 14.0442C28.6071 13.1316 27.2499 12.4218 25.9083 12.1371L25.4871 12.0474L20.222 12.0396C15.3234 12.0357 14.9295 12.0396 14.5863 12.102ZM25.374 14.5824C26.31 14.7462 27.246 15.2298 27.9909 15.9396C28.4862 16.4155 28.8139 16.8601 29.1142 17.4685C29.3872 18.0262 29.5354 18.5176 29.6056 19.1026C29.6329 19.3366 29.6407 21.0527 29.6329 24.1961C29.6173 28.9269 29.6173 28.9347 29.5315 29.313C29.2702 30.4519 28.8295 31.2475 27.9831 32.0977C27.3318 32.749 26.6337 33.1936 25.8498 33.4549C25.1634 33.6811 25.335 33.6733 20.1245 33.6733C14.91 33.6733 15.105 33.6811 14.3757 33.451C13.9467 33.3184 13.2291 32.9401 12.8274 32.6437C12.4569 32.3629 11.8953 31.7974 11.5872 31.3918C11.3493 31.0759 11.006 30.3973 10.8617 29.9488C10.8071 29.7772 10.7252 29.4378 10.6823 29.196C10.6121 28.7709 10.6082 28.533 10.6082 23.9465C10.6082 20.7173 10.6199 19.0636 10.6511 18.9076C10.85 17.7961 11.361 16.8133 12.1683 16.002C12.6051 15.5613 12.9639 15.2961 13.4904 15.0348C13.8609 14.8476 14.5122 14.6214 14.8242 14.5668C14.9412 14.5473 17.2774 14.5317 20.0309 14.5278C24.3483 14.5239 25.0737 14.5317 25.374 14.5824Z" fill="#2F2E41"/>
<path d="M15.8148 16.7548C15.2805 16.8211 14.6487 17.0785 14.1924 17.4139C13.4826 17.9365 13.0107 18.6502 12.7845 19.5394L12.6948 19.8865V24.1181V28.3497L12.8001 28.7358C12.9795 29.3871 13.272 29.9215 13.7088 30.3895C14.1768 30.8965 14.8983 31.2904 15.5613 31.4035C15.7329 31.4347 17.176 31.4503 20.0854 31.4542C24.8435 31.4581 24.5783 31.4737 25.2569 31.189C25.7016 31.0018 26.0019 30.8146 26.349 30.4987C26.9145 29.9878 27.2226 29.4612 27.4683 28.6032C27.5502 28.3146 27.5502 28.2639 27.5619 24.161C27.5775 19.5979 27.5814 19.7071 27.3396 19.0441C26.9964 18.1042 26.2281 17.3125 25.3037 16.942C24.7109 16.708 24.6485 16.7041 20.1322 16.7158C17.8858 16.7236 15.9435 16.7392 15.8148 16.7548ZM25.1165 21.4271V23.5721L25.0112 23.5487C24.8669 23.5136 24.551 23.3576 24.4184 23.2562C24.3638 23.2133 23.4395 22.3007 22.3631 21.2282L20.413 19.282H22.7648H25.1165V21.4271ZM16.903 19.672C17.02 19.7188 17.1838 19.8007 17.2696 19.8592C17.3554 19.9177 18.4786 21.002 19.7617 22.2695C22.9403 25.4052 23.2094 25.6626 23.5799 25.881C23.9699 26.115 24.512 26.3061 24.8552 26.3334L25.1165 26.3529V26.8638C25.1165 27.6555 25.0073 27.9987 24.6446 28.3653C24.395 28.6149 24.1454 28.7202 23.8022 28.7202C23.4902 28.7202 23.2874 28.6578 23.0105 28.4706C22.913 28.4082 21.6689 27.1953 20.2414 25.7718C17.1682 22.7141 17.2189 22.7648 16.8484 22.5152C16.3998 22.2188 16.0176 22.0862 15.5301 22.0589L15.1245 22.0394L15.1401 21.3491L15.1518 20.6626L15.3 20.3662C15.4716 20.0191 15.7017 19.7929 16.0059 19.6759C16.2711 19.5706 16.63 19.5706 16.903 19.672ZM15.5301 25.0034C15.6237 25.0385 15.7953 25.1322 15.9123 25.218C16.1346 25.3701 19.6174 28.7787 19.6174 28.8411C19.6174 28.8606 18.7126 28.8762 17.3749 28.8762H15.1323V27.2265C15.1323 26.3217 15.1206 25.4364 15.105 25.257L15.0816 24.9371H15.222C15.3 24.9371 15.4404 24.9644 15.5301 25.0034Z" fill="#2F2E41"/>
</svg>
