<svg width="24" height="26" viewBox="0 0 24 26" fill="none" xmlns="http://www.w3.org/2000/svg">
<path fill-rule="evenodd" clip-rule="evenodd" d="M11.9084 0.92572C8.24667 0.92572 5.27823 3.99316 5.27823 7.77702V11.5918C5.27823 12.1907 5.03699 12.7625 4.6124 13.1701L2.84783 14.8642C1.12206 16.521 1.58213 19.4481 3.69435 20.4866C4.75203 21.0066 5.84564 21.4217 6.96064 21.7316C6.98968 21.8001 7.02232 21.8747 7.05865 21.9542C7.24054 22.3524 7.52086 22.8886 7.9141 23.4304C8.69015 24.4998 10.0074 25.7191 11.9594 25.7191C13.9115 25.7191 15.2287 24.4998 16.0047 23.4304C16.398 22.8886 16.6783 22.3524 16.8602 21.9542C16.8959 21.8762 16.928 21.8029 16.9566 21.7354C18.0614 21.4284 19.1452 21.0172 20.1939 20.5016C22.3276 19.4526 22.7409 16.4976 20.982 14.8672L19.146 13.1653C18.7092 12.7604 18.4642 12.1794 18.4746 11.5732L18.5376 7.89839C18.6033 4.06764 15.6161 0.92572 11.9084 0.92572ZM14.566 22.2335C12.8362 22.4768 11.0807 22.4756 9.35092 22.2307C9.36402 22.2492 9.37727 22.2677 9.39068 22.2862C9.99869 23.124 10.8347 23.8119 11.9594 23.8119C13.0842 23.8119 13.9202 23.124 14.5282 22.2862C14.5409 22.2686 14.5535 22.251 14.566 22.2335ZM19.401 18.7794C14.6945 21.0934 9.19714 21.08 4.48731 18.7644C3.53748 18.2974 3.34555 16.9896 4.10405 16.2614L5.86862 14.5674C6.66907 13.7989 7.12386 12.7208 7.12386 11.5918V7.77702C7.12386 5.04646 9.26598 2.83291 11.9084 2.83291C14.584 2.83291 16.7396 5.10021 16.6922 7.86461L16.6292 11.5394C16.6093 12.6991 17.078 13.8105 17.9136 14.585L19.7496 16.2869C20.5277 17.0081 20.3449 18.3153 19.401 18.7794Z" fill="#5D5D5B"/>
</svg>
