<svg width="30" height="30" viewBox="0 0 30 30" fill="none" xmlns="http://www.w3.org/2000/svg">
<path fill-rule="evenodd" clip-rule="evenodd" d="M14.935 1H15.065C17.7021 0.999988 19.7692 0.999979 21.4092 1.17766C23.0828 1.35898 24.4388 1.73564 25.5966 2.57683C26.2975 3.08609 26.9139 3.70249 27.4232 4.40341C28.2644 5.56121 28.641 6.91725 28.8223 8.59084C29 10.2308 29 12.2979 29 14.935V15.065C29 17.7021 29 19.7692 28.8223 21.4092C28.641 23.0828 28.2644 24.4388 27.4232 25.5966C26.9139 26.2975 26.2975 26.9139 25.5966 27.4232C24.4388 28.2644 23.0828 28.641 21.4092 28.8223C19.7692 29 17.7021 29 15.065 29H14.935C12.2979 29 10.2308 29 8.59084 28.8223C6.91725 28.641 5.56121 28.2644 4.40341 27.4232C3.70249 26.9139 3.08609 26.2975 2.57683 25.5966C1.73564 24.4388 1.35898 23.0828 1.17766 21.4092C0.999979 19.7692 0.999988 17.7021 1 15.065V14.935C0.999988 12.2979 0.999979 10.2308 1.17766 8.59084C1.35898 6.91725 1.73564 5.56121 2.57683 4.40341C3.08609 3.70249 3.70249 3.08609 4.40341 2.57683C5.56121 1.73564 6.91725 1.35898 8.59084 1.17766C10.2308 0.999979 12.2979 0.999988 14.935 1ZM8.82283 3.31898C7.3325 3.48044 6.39886 3.78936 5.66941 4.31933C5.15134 4.69574 4.69574 5.15134 4.31933 5.66941C3.78936 6.39886 3.48044 7.3325 3.31898 8.82283C3.15532 10.3333 3.15385 12.2839 3.15385 15C3.15385 17.7161 3.15532 19.6667 3.31898 21.1772C3.48044 22.6675 3.78936 23.6011 4.31933 24.3306C4.69574 24.8487 5.15134 25.3043 5.66941 25.6807C6.39886 26.2106 7.3325 26.5196 8.82283 26.681C10.3333 26.8447 12.2839 26.8462 15 26.8462C17.7161 26.8462 19.6667 26.8447 21.1772 26.681C22.6675 26.5196 23.6011 26.2106 24.3306 25.6807C24.8487 25.3043 25.3043 24.8487 25.6807 24.3306C26.2106 23.6011 26.5196 22.6675 26.681 21.1772C26.8447 19.6667 26.8462 17.7161 26.8462 15C26.8462 12.2839 26.8447 10.3333 26.681 8.82283C26.5196 7.3325 26.2106 6.39886 25.6807 5.66941C25.3043 5.15134 24.8487 4.69574 24.3306 4.31933C23.6011 3.78936 22.6675 3.48044 21.1772 3.31898C19.6667 3.15532 17.7161 3.15385 15 3.15385C12.2839 3.15385 10.3333 3.15532 8.82283 3.31898Z" fill="#2F2E41"/>
<path d="M13.9231 10.9387C13.9231 10.3439 14.4053 9.86175 15 9.86175C15.5948 9.86175 16.0769 10.3439 16.0769 10.9387V13.9231H19.0613C19.6561 13.9231 20.1383 14.4053 20.1383 15C20.1383 15.5948 19.6561 16.0769 19.0613 16.0769H16.0769V19.0613C16.0769 19.6561 15.5948 20.1383 15 20.1383C14.4053 20.1383 13.9231 19.6561 13.9231 19.0613V16.0769H10.9387C10.3439 16.0769 9.86175 15.5948 9.86175 15C9.86175 14.4053 10.3439 13.9231 10.9387 13.9231H13.9231V10.9387Z" fill="#2F2E41"/>
</svg>
