<svg width="31" height="31" viewBox="0 0 31 31" fill="none" xmlns="http://www.w3.org/2000/svg">
<path d="M8.26174 0.151367C6.52834 0.478516 4.98049 1.20605 3.69631 2.30957C2.04103 3.73047 1.01564 5.4248 0.512713 7.58301L0.380877 8.13965L0.361346 14.7314C0.346697 21.8115 0.341814 21.7969 0.595721 22.7979C1.04006 24.5654 1.9092 26.0791 3.25685 27.4316C4.57521 28.7549 6.32814 29.6973 8.31056 30.1416L8.82326 30.2588H15.1953H21.5674L22.1289 30.1465C24.8389 29.5947 27.0752 28.0127 28.6426 25.5469C29.1846 24.6875 29.6289 23.5254 29.8779 22.2998L30.0147 21.6162V14.9756V8.33496L29.8731 7.7002C29.4434 5.74707 28.4326 3.93555 27.0166 2.58301C25.8154 1.44043 24.1162 0.551758 22.4365 0.195312L21.9092 0.0830078L15.3174 0.0732422C9.18459 0.0683594 8.69142 0.0732422 8.26174 0.151367ZM21.7676 3.25684C22.9395 3.46191 24.1113 4.06738 25.044 4.95605C25.6641 5.55176 26.0742 6.1084 26.4502 6.87012C26.792 7.56836 26.9776 8.18359 27.0654 8.91602C27.0996 9.20898 27.1094 11.3574 27.0996 15.293C27.0801 21.2158 27.0801 21.2256 26.9727 21.6992C26.6455 23.125 26.0938 24.1211 25.0342 25.1855C24.2188 26.001 23.3447 26.5576 22.3633 26.8848C21.5039 27.168 21.7188 27.1582 15.1953 27.1582C8.66701 27.1582 8.91115 27.168 7.99806 26.8799C7.46095 26.7139 6.56252 26.2402 6.05959 25.8691C5.59572 25.5176 4.8926 24.8096 4.50685 24.3018C4.209 23.9062 3.77931 23.0566 3.59865 22.4951C3.53029 22.2803 3.42775 21.8555 3.37404 21.5527C3.28615 21.0205 3.28127 20.7227 3.28127 14.9805C3.28127 10.9375 3.29592 8.86719 3.33498 8.67188C3.584 7.28027 4.22365 6.0498 5.23439 5.03418C5.78127 4.48242 6.23049 4.15039 6.88967 3.82324C7.35353 3.58887 8.16896 3.30566 8.55959 3.2373C8.70607 3.21289 11.6309 3.19336 15.0781 3.18848C20.4834 3.18359 21.3916 3.19336 21.7676 3.25684Z" fill="#2F2E41"/>
<path d="M9.7998 5.97659C9.13086 6.05959 8.33984 6.38186 7.76855 6.80178C6.87988 7.45608 6.28906 8.34963 6.00586 9.46291L5.89355 9.89748V15.1953V20.4932L6.02539 20.9766C6.25 21.792 6.61621 22.461 7.16309 23.0469C7.74902 23.6817 8.65234 24.1748 9.48242 24.3164C9.69727 24.3555 11.5039 24.375 15.1465 24.3799C21.1035 24.3848 20.7715 24.4043 21.6211 24.0479C22.1777 23.8135 22.5537 23.5791 22.9883 23.1836C23.6963 22.544 24.082 21.8848 24.3896 20.8106C24.4922 20.4492 24.4922 20.3858 24.5068 15.249C24.5264 9.53615 24.5312 9.67287 24.2285 8.8428C23.7988 7.66604 22.8369 6.67483 21.6797 6.21096C20.9375 5.91799 20.8594 5.91311 15.2051 5.92776C12.3926 5.93752 9.96094 5.95705 9.7998 5.97659ZM21.4453 11.8262V14.5117L21.3135 14.4824C21.1328 14.4385 20.7373 14.2432 20.5713 14.1162C20.5029 14.0625 19.3457 12.9199 17.998 11.5772L15.5566 9.14065H18.501H21.4453V11.8262ZM11.1621 9.62893C11.3086 9.68752 11.5137 9.79006 11.6211 9.8633C11.7285 9.93655 13.1348 11.294 14.7412 12.8809C18.7207 16.8067 19.0576 17.1289 19.5215 17.4024C20.0098 17.6953 20.6885 17.9346 21.1182 17.9688L21.4453 17.9932V18.6328C21.4453 19.624 21.3086 20.0537 20.8545 20.5127C20.542 20.8252 20.2295 20.9571 19.7998 20.9571C19.4092 20.9571 19.1553 20.8789 18.8086 20.6446C18.6865 20.5664 17.1289 19.0479 15.3418 17.2656C11.4941 13.4375 11.5576 13.501 11.0937 13.1885C10.5322 12.8174 10.0537 12.6514 9.44336 12.6172L8.93555 12.5928L8.95508 11.7285L8.96973 10.8692L9.15527 10.4981C9.37012 10.0635 9.6582 9.7803 10.0391 9.63381C10.3711 9.50198 10.8203 9.50198 11.1621 9.62893ZM9.44336 16.3037C9.56055 16.3477 9.77539 16.4649 9.92187 16.5723C10.2002 16.7627 14.5605 21.0303 14.5605 21.1084C14.5605 21.1328 13.4277 21.1524 11.7529 21.1524H8.94531V19.0869C8.94531 17.9541 8.93066 16.8457 8.91113 16.6211L8.88184 16.2207H9.05762C9.15527 16.2207 9.33105 16.2549 9.44336 16.3037Z" fill="#2F2E41"/>
</svg>
