<svg width="600" height="334" viewBox="0 0 600 334" fill="none" xmlns="http://www.w3.org/2000/svg">
<g clip-path="url(#clip0_4_906)">
<path d="M98.623 151.865V57.9997C98.623 56.6593 99.1695 55.3737 100.142 54.4258C101.115 53.478 102.435 52.9455 103.81 52.9455C105.186 52.9455 106.505 53.478 107.478 54.4258C108.451 55.3737 108.998 56.6593 108.998 57.9997V151.865C108.998 153.206 108.451 154.491 107.478 155.439C106.505 156.387 105.186 156.919 103.81 156.919C102.435 156.919 101.115 156.387 100.142 155.439C99.1695 154.491 98.623 153.206 98.623 151.865Z" fill="#F0F0F0"/>
<path d="M86.2106 151.865V57.9997C86.2106 56.6593 86.7572 55.3737 87.73 54.4258C88.7028 53.478 90.0221 52.9455 91.3979 52.9455C92.7736 52.9455 94.093 53.478 95.0658 54.4258C96.0386 55.3737 96.5852 56.6593 96.5852 57.9997V151.865C96.5852 153.206 96.0386 154.491 95.0658 155.439C94.093 156.387 92.7736 156.919 91.3979 156.919C90.0221 156.919 88.7028 156.387 87.73 155.439C86.7572 154.491 86.2106 153.206 86.2106 151.865Z" fill="#F0F0F0"/>
<path d="M73.7982 151.865V57.9997C73.7982 56.6593 74.3447 55.3737 75.3175 54.4258C76.2903 53.478 77.6097 52.9455 78.9855 52.9455C80.3612 52.9455 81.6806 53.478 82.6534 54.4258C83.6262 55.3737 84.1727 56.6593 84.1727 57.9997V151.865C84.1727 153.206 83.6262 154.491 82.6534 155.439C81.6806 156.387 80.3612 156.919 78.9855 156.919C77.6097 156.919 76.2903 156.387 75.3175 155.439C74.3447 154.491 73.7982 153.206 73.7982 151.865Z" fill="#F0F0F0"/>
<path d="M542.434 301.787C540.345 301.788 538.271 301.438 536.305 300.75L536.002 300.644L536.141 299.99C532.62 293.058 533.851 283.562 539.293 275.753C544.241 268.655 551.764 263.494 558.401 258.941C559.244 258.364 560.244 258.045 561.274 258.025C562.304 258.006 563.316 258.288 564.18 258.833C565.044 259.379 565.722 260.164 566.124 261.088C566.527 262.012 566.637 263.031 566.44 264.017L564.066 275.882C562.353 284.442 560.316 292.544 554.272 297.596C550.953 300.303 546.762 301.786 542.434 301.787Z" fill="#E6E6E6"/>
<path d="M557.978 322.291C555.679 322.278 553.42 321.705 551.406 320.625C549.392 319.545 547.686 317.992 546.445 316.106L546.273 315.846L546.683 315.493C547.745 309.848 552.739 304.818 559.446 302.655C565.541 300.689 572.27 301.011 578.202 301.293C578.986 301.33 579.741 301.594 580.372 302.049C581.002 302.505 581.479 303.133 581.743 303.853C582.007 304.573 582.045 305.354 581.853 306.095C581.661 306.837 581.248 307.506 580.665 308.019L573.99 313.89C569.139 318.155 564.301 322.006 558.466 322.282C558.303 322.288 558.14 322.291 557.978 322.291Z" fill="#E6E6E6"/>
<path d="M537.262 328.567C536.277 321.415 535.263 314.171 535.954 306.942C536.568 300.522 538.535 294.252 542.538 289.111C544.653 286.396 547.239 284.062 550.178 282.214C550.942 281.734 551.646 282.94 550.885 283.418C545.789 286.642 541.869 291.352 539.686 296.877C537.248 303.054 536.857 309.787 537.277 316.349C537.531 320.317 538.07 324.259 538.612 328.196C538.656 328.373 538.63 328.559 538.539 328.718C538.449 328.877 538.3 328.997 538.123 329.054C538.034 329.077 537.941 329.083 537.849 329.071C537.757 329.059 537.669 329.03 537.589 328.985C537.509 328.939 537.439 328.879 537.383 328.808C537.327 328.736 537.286 328.654 537.262 328.567Z" fill="#F2F2F2"/>
<path d="M534.477 332.678C539.221 324.316 544.724 315.022 554.558 312.052C557.288 311.229 560.157 310.934 563.004 311.183C563.901 311.26 563.677 312.637 562.782 312.56C558 312.169 553.23 313.426 549.303 316.113C545.502 318.689 542.543 322.272 540.038 326.071C538.504 328.398 537.13 330.824 535.755 333.246C535.316 334.02 534.032 333.462 534.477 332.678Z" fill="#F2F2F2"/>
<path d="M532.341 332.556L537.132 332.663L508.246 182.306L503.456 183.186L510.999 222.19H486.697L494.24 183.186L489.45 182.306L460.805 332.663L465.355 332.556L480.414 254.682H517.282L532.341 332.556ZM481.531 248.906L485.58 227.967H512.116L516.165 248.906H481.531Z" fill="#CACACA"/>
<path d="M323.157 154.26V104.883C323.157 103.417 325.484 102.224 328.345 102.224C331.205 102.224 333.532 103.417 333.532 104.883V154.26C333.532 155.726 331.205 156.919 328.345 156.919C325.484 156.919 323.157 155.726 323.157 154.26Z" fill="#F0F0F0"/>
<path d="M310.745 154.26V104.883C310.745 103.417 313.072 102.224 315.932 102.224C318.793 102.224 321.12 103.417 321.12 104.883V154.26C321.12 155.726 318.793 156.919 315.932 156.919C313.072 156.919 310.745 155.726 310.745 154.26Z" fill="#F0F0F0"/>
<path d="M298.333 154.26V104.883C298.333 103.417 300.66 102.224 303.52 102.224C306.38 102.224 308.707 103.417 308.707 104.883V154.26C308.707 155.726 306.38 156.919 303.52 156.919C300.66 156.919 298.333 155.726 298.333 154.26Z" fill="#F0F0F0"/>
<path d="M402.755 117.948C402.732 117.798 402.677 117.655 402.593 117.527C402.509 117.399 402.399 117.289 402.269 117.206L363.162 92.0507C363.752 91.811 364.244 91.3903 364.566 90.8526C364.956 90.1887 365.062 89.4012 364.859 88.6619C364.655 87.9227 364.16 87.2919 363.481 86.9073L360.272 85.1022C359.591 84.7215 358.783 84.619 358.024 84.8171C357.265 85.0151 356.618 85.4977 356.223 86.1594C356.01 86.523 355.882 86.928 355.848 87.3456L327.619 69.1874C326.671 66.9502 325.233 64.9414 323.407 63.3008C321.581 61.6602 319.409 60.4274 317.044 59.6881V51.6819H306.669V59.6881C303.227 60.7606 300.224 62.8709 298.093 65.7146C295.962 68.5583 294.813 71.9881 294.813 75.5092V77.6754H305.187C305.187 79.3988 305.89 81.0517 307.141 82.2704C308.391 83.4891 310.088 84.1737 311.857 84.1737C313.625 84.1737 315.322 83.4891 316.573 82.2704C317.823 81.0517 318.526 79.3988 318.526 77.6754H328.9V75.5092C328.899 74.4709 328.799 73.4348 328.601 72.4147L400.014 118.351L370.349 153.493C370.119 153.492 369.889 153.49 369.658 153.49C367.291 153.49 364.997 153.544 362.812 153.638C362.944 153.281 363.002 152.902 362.982 152.523C362.939 151.759 362.587 151.043 362.003 150.531C361.42 150.018 360.652 149.752 359.867 149.789L356.167 149.977C355.383 150.019 354.648 150.362 354.122 150.931C353.596 151.499 353.323 152.248 353.361 153.012C353.389 153.463 353.526 153.902 353.763 154.291C347.22 154.969 342.98 155.903 342.98 156.378C342.98 157.156 354.365 156.415 368.614 156.38C368.68 156.56 368.793 156.72 368.943 156.844C369.093 156.968 369.274 157.051 369.468 157.084C369.661 157.117 369.86 157.099 370.044 157.032C370.229 156.966 370.391 156.853 370.516 156.705L370.79 156.38C384.998 156.418 396.335 157.155 396.335 156.378C396.335 155.645 386.255 153.823 373.195 153.531L402.515 118.798C402.614 118.68 402.686 118.544 402.728 118.398C402.769 118.251 402.779 118.098 402.755 117.948Z" fill="#CCCCCC"/>
<path d="M403.825 332.917H312.517C310.672 332.915 308.903 332.2 307.598 330.928C306.294 329.657 305.56 327.933 305.558 326.135V180.127C305.556 178.521 304.9 176.981 303.734 175.845C302.568 174.709 300.988 174.07 299.339 174.068H85.7602C84.1115 174.07 82.5308 174.709 81.3649 175.845C80.1991 176.981 79.5433 178.521 79.5413 180.127V326.135C79.5393 327.933 78.8053 329.657 77.5005 330.928C76.1958 332.2 74.4267 332.915 72.5815 332.917H69.4574C67.6121 332.915 65.8431 332.2 64.5383 330.928C63.2335 329.657 62.4996 327.933 62.4975 326.135V172.263C62.5024 167.956 64.2607 163.826 67.3865 160.781C70.5123 157.735 74.7503 156.022 79.1708 156.017H394.112C398.532 156.022 402.77 157.735 405.896 160.781C409.022 163.826 410.78 167.956 410.785 172.263V326.135C410.783 327.933 410.049 329.657 408.744 330.928C407.439 332.2 405.67 332.915 403.825 332.917Z" fill="#E4E4E4"/>
<path d="M410.415 193.924H305.928V198.256H410.415V193.924Z" fill="white"/>
<path d="M410.415 252.409H305.928V256.742H410.415V252.409Z" fill="white"/>
<path d="M219.437 155.304L216.434 154.072L214.374 139.404H186.941L184.708 154.012L182.021 155.321C181.893 155.383 181.789 155.487 181.729 155.613C181.668 155.74 181.653 155.883 181.686 156.02C181.719 156.156 181.798 156.277 181.91 156.364C182.023 156.451 182.163 156.498 182.306 156.498H219.19C219.337 156.498 219.48 156.449 219.594 156.358C219.708 156.267 219.786 156.141 219.815 156C219.844 155.859 219.822 155.713 219.754 155.586C219.685 155.459 219.573 155.36 219.437 155.304Z" fill="#E6E6E6"/>
<path d="M268.188 141.355H133.428C132.721 141.354 132.043 141.079 131.544 140.591C131.044 140.103 130.764 139.443 130.764 138.754V120.238H270.852V138.754C270.852 139.443 270.571 140.103 270.072 140.591C269.573 141.079 268.895 141.354 268.188 141.355Z" fill="#CCCCCC"/>
<path d="M270.993 128.989H130.641V49.7635C130.642 48.9321 130.981 48.135 131.585 47.5471C132.188 46.9592 133.006 46.6285 133.859 46.6276H267.774C268.628 46.6285 269.446 46.9592 270.049 47.5471C270.652 48.135 270.992 48.9321 270.993 49.7635V128.989Z" fill="#3F3D56"/>
<path d="M262.61 123.239H139.023C138.366 123.238 137.735 122.983 137.27 122.53C136.805 122.077 136.543 121.462 136.542 120.821V54.7954C136.543 54.1544 136.805 53.5398 137.27 53.0866C137.735 52.6333 138.366 52.3784 139.023 52.3776H262.61C263.268 52.3784 263.899 52.6333 264.364 53.0866C264.829 53.5398 265.091 54.1544 265.091 54.7954V120.821C265.091 121.462 264.829 122.077 264.364 122.53C263.899 122.983 263.268 123.238 262.61 123.239Z" fill="white"/>
<path d="M401.153 59.9573C402.335 59.7913 403.54 59.88 404.684 60.2169C405.827 60.5539 406.88 61.131 407.77 61.9076C408.66 62.6842 409.364 63.6414 409.832 64.7118C410.301 65.7821 410.524 66.9397 410.484 68.1028L437.58 78.2652L425.304 86.8114L401.455 75.8508C399.454 75.6559 397.596 74.7526 396.232 73.312C394.869 71.8715 394.096 69.9938 394.059 68.0347C394.021 66.0756 394.723 64.1713 396.031 62.6826C397.338 61.1938 399.161 60.2242 401.153 59.9573Z" fill="#9E616A"/>
<path d="M504.037 54.9687L508.621 63.0893C507.513 68.2399 504.65 72.8739 500.497 76.2382C493.479 82.0056 456.782 103.486 456.782 103.486L410.454 80.8241L418.559 70.3306L454.93 82.2074C468.423 69.7933 484.705 60.6219 502.479 55.4243L504.037 54.9687Z" fill="#E4E4E4"/>
<path d="M495.513 189.344C515.481 189.344 531.669 184.205 531.669 177.865C531.669 171.525 515.481 166.386 495.513 166.386C475.545 166.386 459.357 171.525 459.357 177.865C459.357 184.205 475.545 189.344 495.513 189.344Z" fill="#CACACA"/>
<path d="M414.401 322.828L404.8 320.243L410.467 282.929L424.638 286.746L414.401 322.828Z" fill="#9E616A"/>
<path d="M414.277 332.556L383.32 324.218L383.428 323.836C384.311 320.723 386.428 318.078 389.312 316.485C392.196 314.892 395.612 314.48 398.808 315.341L398.808 315.341L417.716 320.434L414.277 332.556Z" fill="#2F2E41"/>
<path d="M386.565 322.95L377.452 319.029L388.636 282.918L402.084 288.704L386.565 322.95Z" fill="#9E616A"/>
<path d="M384.988 332.556L355.607 319.915L355.771 319.552C357.11 316.597 359.6 314.282 362.691 313.115C365.783 311.948 369.224 312.025 372.257 313.33L372.257 313.33L390.202 321.051L384.988 332.556Z" fill="#2F2E41"/>
<path d="M523.652 149.8C523.652 149.8 528.481 164.38 498.848 182.819L460.684 219.873L421.029 312.299L397.487 302.015L402.104 290.006L405.202 281.947L406.787 277.824L408.487 273.405L433.691 207.853L454.862 171.735L455.476 152.136L460.684 138.321L498.464 125.258L523.652 149.8Z" fill="#2F2E41"/>
<path d="M504.385 150.522C504.385 150.522 509.214 165.102 479.581 183.541L441.417 220.595L401.762 313.021L378.22 302.737L382.837 290.728L385.935 282.669L387.52 278.547L389.22 274.127L414.424 208.576L421.512 196.482C430.864 180.528 442.228 165.776 455.338 152.571L462.287 145.572L463.028 134.741L479.197 125.98L504.385 150.522Z" fill="#2F2E41"/>
<path d="M481.554 79.1438L493.411 54.5944L514.102 51.8443C514.102 51.8443 530.258 71.9005 526.017 100.083C524.426 110.651 523.13 121.173 523.052 130.409C523.032 132.866 525.238 133.963 525.276 136.185C525.312 138.367 521.094 141.922 522.311 143.405C524.053 145.45 525.09 147.976 525.276 150.626C523.807 154.031 479.364 135.583 460.684 138.321L481.554 79.1438Z" fill="#E4E4E4"/>
<path d="M510.942 39.4851C516.224 30.8282 513.303 19.6389 504.418 14.4929C495.534 9.3469 484.05 12.193 478.768 20.8498C473.487 29.5066 476.408 40.696 485.293 45.842C494.177 50.988 505.661 48.1419 510.942 39.4851Z" fill="#9E616A"/>
<path d="M506.82 23.6201C506.784 24.0999 506.735 24.7354 506.678 25.4543C506.62 27.4224 507.189 29.3597 508.307 30.9995C509.354 32.7248 508.105 43.1449 508.105 43.1449C538.76 22.3238 514.538 1.40586 505.063 3.26533C505.261 0.617507 497.533 1.66645 497.533 1.66645C494.589 -2.80141 488.135 3.1293 488.135 3.1293L489.381 1.08814C484.37 2.32985 479.418 17.4173 479.418 17.4173C481.118 23.9263 507.018 20.9723 506.82 23.6201Z" fill="#2F2E41"/>
<path d="M387.898 88.801C398.433 75.148 406.76 60.0045 412.592 43.8965C412.93 42.933 412.906 41.8839 412.524 40.936C412.143 39.9882 411.428 39.203 410.508 38.7203L374.46 19.9001C373.877 19.5933 373.23 19.4203 372.568 19.3941C371.905 19.3679 371.246 19.4893 370.639 19.749C370.021 20.0107 369.472 20.4063 369.035 20.9058C368.597 21.4052 368.283 21.9954 368.114 22.6312C363.919 38.1534 356.032 52.4952 345.092 64.4965C344.642 64.985 344.312 65.5671 344.127 66.1987C343.943 66.8302 343.909 67.4945 344.027 68.1408C344.141 68.7769 344.403 69.3793 344.792 69.902C345.181 70.4247 345.688 70.8539 346.273 71.1571L382.321 89.9774C383.243 90.4564 384.31 90.6011 385.331 90.3857C386.352 90.1703 387.262 89.6087 387.898 88.801Z" fill="#CCCCCC"/>
<path d="M385.438 86.9999C385.245 87.2357 384.972 87.3982 384.669 87.4593C384.365 87.5204 384.049 87.4764 383.775 87.3347L347.727 68.5141C347.551 68.4252 347.4 68.298 347.284 68.1425C347.168 67.987 347.09 67.8073 347.057 67.6177C347.02 67.4175 347.03 67.2115 347.088 67.0159C347.146 66.8203 347.249 66.6405 347.391 66.4904C358.653 54.1356 366.772 39.3712 371.091 23.3916C371.141 23.1942 371.237 23.0107 371.372 22.8555C371.507 22.7004 371.677 22.5777 371.869 22.4972C372.049 22.4185 372.246 22.3817 372.443 22.3897C372.641 22.3976 372.834 22.4501 373.007 22.543L409.055 41.3631C409.328 41.5068 409.541 41.739 409.657 42.0195C409.773 42.3 409.785 42.6112 409.69 42.8993C403.963 58.7189 395.784 73.5913 385.438 86.9999Z" fill="white"/>
<path d="M372.827 40.4239L397.69 54.6237C400.164 56.0365 402.404 52.2935 399.934 50.8829L375.071 36.6831C372.597 35.2703 370.357 39.0133 372.827 40.4239Z" fill="#6C63FF"/>
<path d="M368.381 48.3664L393.244 62.5661C395.718 63.9789 397.958 60.2359 395.488 58.8254L370.625 44.6256C368.151 43.2127 365.911 46.9558 368.381 48.3664Z" fill="#6C63FF"/>
<path d="M363.193 57.0309L388.057 71.2306C390.531 72.6434 392.771 68.9004 390.301 67.4899L365.438 53.29C362.964 51.8772 360.724 55.6203 363.193 57.0309Z" fill="#6C63FF"/>
<path d="M358.006 64.2513L382.87 78.451C385.343 79.8638 387.584 76.1208 385.114 74.7103L360.25 60.5105C357.776 59.0977 355.536 62.8407 358.006 64.2513Z" fill="#6C63FF"/>
<path d="M471.351 147.776L480.686 168.228C480.911 168.718 481.007 169.254 480.966 169.789C480.925 170.324 480.747 170.841 480.45 171.292C480.099 171.831 479.593 172.258 478.994 172.517C478.395 172.777 477.731 172.858 477.085 172.75C476.865 172.717 476.649 172.661 476.442 172.583C475.617 172.272 474.952 171.656 474.592 170.868L465.257 150.416C465.08 150.026 464.982 149.606 464.971 149.18C464.96 148.753 465.035 148.329 465.192 147.93C465.509 147.126 466.141 146.477 466.949 146.127C467.758 145.777 468.675 145.754 469.501 146.063C470.326 146.372 470.992 146.988 471.351 147.776Z" fill="#6C63FF"/>
<path d="M479.933 166.579L481.803 170.706L482.759 176.558C482.822 176.944 482.753 177.339 482.562 177.681C482.371 178.024 482.07 178.296 481.704 178.455C481.338 178.613 480.928 178.65 480.539 178.558C480.15 178.466 479.803 178.252 479.552 177.948L475.682 173.257L473.839 169.219L479.933 166.579Z" fill="#3F3D56"/>
<path d="M463.183 142.086L464.521 150.274C464.564 150.542 464.671 150.796 464.832 151.018C464.993 151.24 465.204 151.422 465.449 151.552C465.693 151.681 465.966 151.754 466.244 151.765C466.522 151.776 466.799 151.724 467.054 151.613L468.38 151.039L470.94 156.647C471.02 156.821 471.168 156.958 471.351 157.026C471.534 157.095 471.738 157.09 471.917 157.012C472.097 156.934 472.237 156.79 472.308 156.612C472.378 156.433 472.373 156.235 472.294 156.06L469.734 150.452L471.06 149.877C471.5 149.687 471.844 149.334 472.018 148.897C472.191 148.459 472.179 147.973 471.985 147.543C471.92 147.401 471.837 147.268 471.736 147.147L466.392 140.695C466.141 140.392 465.793 140.177 465.404 140.086C465.015 139.995 464.605 140.031 464.239 140.189C463.874 140.348 463.572 140.62 463.381 140.963C463.19 141.306 463.12 141.7 463.183 142.086Z" fill="#3F3D56"/>
<path d="M467.055 156.865C467.266 155.719 467.731 154.632 468.419 153.681C469.107 152.73 470.001 151.937 471.038 151.358C472.074 150.78 473.228 150.43 474.418 150.333C475.609 150.237 476.806 150.395 477.927 150.798L496.354 128.936L500.816 142.979L482.633 161.587C481.814 163.376 480.349 164.811 478.517 165.618C476.684 166.425 474.612 166.55 472.692 165.968C470.771 165.386 469.137 164.137 468.098 162.46C467.06 160.782 466.688 158.791 467.055 156.865Z" fill="#9E616A"/>
<path d="M490.253 155.444L482.138 144.022L505.183 114.082L493.311 89.2945L494.176 59.8098L503.986 58.044L504.108 58.1035C508.877 60.7786 512.564 64.9629 514.556 69.9614C517.003 75.9228 522.467 98.3019 525.505 111.111C526.102 113.593 526.037 116.183 525.316 118.633C524.594 121.084 523.241 123.314 521.385 125.11L490.253 155.444Z" fill="#E4E4E4"/>
<path d="M261.745 100.252C261.677 100.807 261.655 101.366 261.678 101.924L220.125 131.379L208.71 126.457L198.834 142.272L218.174 152.9C219.736 153.758 221.542 154.1 223.321 153.873C225.099 153.647 226.754 152.864 228.037 151.643L269.858 111.841C271.999 112.371 274.254 112.254 276.325 111.504C278.395 110.755 280.182 109.409 281.448 107.646C282.715 105.882 283.4 103.785 283.413 101.633C283.426 99.481 282.766 97.3761 281.522 95.5983C280.277 93.8205 278.506 92.4541 276.445 91.6807C274.384 90.9073 272.13 90.7637 269.983 91.2689C267.836 91.7741 265.898 92.9042 264.427 94.5089C262.955 96.1137 262.019 98.117 261.745 100.252Z" fill="#FFB6B6"/>
<path d="M218.782 132.456L206.664 152.13C206.32 152.69 205.855 153.171 205.302 153.54C204.75 153.909 204.122 154.158 203.462 154.269C202.801 154.38 202.124 154.352 201.476 154.185C200.829 154.018 200.225 153.718 199.707 153.303L181.565 138.785C178.636 137.05 176.533 134.254 175.716 131.01C174.9 127.766 175.437 124.34 177.209 121.481C178.981 118.622 181.845 116.565 185.171 115.76C188.498 114.955 192.017 115.468 194.956 117.186L216.571 125.922C217.19 126.173 217.746 126.55 218.202 127.029C218.658 127.507 219.002 128.076 219.212 128.696C219.422 129.316 219.492 129.973 219.418 130.622C219.343 131.271 219.126 131.896 218.782 132.456Z" fill="#6C63FF"/>
<path d="M166.862 303.462H190.615V265.11H166.862V303.462Z" fill="#CACACA"/>
<path d="M189.424 285.403L186.376 289.781L243.381 327.471L246.429 323.094L189.424 285.403Z" fill="#CACACA"/>
<path d="M168.053 285.403L111.048 323.094L114.096 327.471L171.101 289.781L168.053 285.403Z" fill="#CACACA"/>
<path d="M244.905 332.556C249.028 332.556 252.37 329.299 252.37 325.282C252.37 321.265 249.028 318.009 244.905 318.009C240.782 318.009 237.44 321.265 237.44 325.282C237.44 329.299 240.782 332.556 244.905 332.556Z" fill="#CACACA"/>
<path d="M178.399 332.556C182.522 332.556 185.864 329.299 185.864 325.282C185.864 321.265 182.522 318.009 178.399 318.009C174.276 318.009 170.934 321.265 170.934 325.282C170.934 329.299 174.276 332.556 178.399 332.556Z" fill="#CACACA"/>
<path d="M112.572 332.556C116.695 332.556 120.037 329.299 120.037 325.282C120.037 321.265 116.695 318.009 112.572 318.009C108.449 318.009 105.107 321.265 105.107 325.282C105.107 329.299 108.449 332.556 112.572 332.556Z" fill="#CACACA"/>
<path d="M181.114 287.592H175.685V325.282H181.114V287.592Z" fill="#CACACA"/>
<path d="M173.649 282.302H183.828V231.387H173.649V282.302Z" fill="#CACACA"/>
<path d="M149.557 239.322V227.42C149.56 225.228 150.454 223.127 152.045 221.578C153.635 220.028 155.791 219.157 158.04 219.154H203.509C205.758 219.157 207.914 220.028 209.504 221.578C211.094 223.127 211.989 225.228 211.991 227.42V239.322C211.989 241.513 211.094 243.614 209.504 245.164C207.914 246.713 205.758 247.585 203.509 247.587H158.04C155.791 247.585 153.635 246.713 152.045 245.164C150.454 243.614 149.56 241.513 149.557 239.322Z" fill="#3F3D56"/>
<path d="M231.679 320.679L244.253 320.679L250.236 288.901L231.677 288.902L231.679 320.679Z" fill="#FFB8B8"/>
<path d="M228.472 332.556L269.018 332.554V332.055C269.018 330.035 268.61 328.036 267.817 326.17C267.023 324.305 265.861 322.61 264.396 321.182C262.93 319.754 261.191 318.621 259.276 317.848C257.361 317.076 255.309 316.678 253.237 316.678H253.235L228.471 316.679L228.472 332.556Z" fill="#2F2E41"/>
<path d="M250.486 300.973L275.555 246.199C277.648 241.582 277.88 236.367 276.203 231.592C274.527 226.816 271.066 222.831 266.51 220.431L212.135 192.02L187.322 189.964L164.435 187.937L164.27 188.209C164.058 188.556 159.137 196.838 162.464 205.92C164.987 212.808 171.55 218.189 181.971 221.912C206.295 230.602 234.393 238.029 245.345 240.819C245.829 240.939 246.281 241.158 246.672 241.461C247.063 241.764 247.383 242.145 247.613 242.577C247.842 243.005 247.979 243.474 248.014 243.955C248.048 244.437 247.98 244.92 247.814 245.374L224.524 296.358C224.281 297.005 224.193 297.697 224.268 298.382C224.343 299.067 224.578 299.726 224.956 300.308C225.333 300.89 225.843 301.38 226.445 301.74C227.048 302.1 227.727 302.32 228.431 302.384L245.834 303.618C245.981 303.632 246.128 303.639 246.275 303.639C247.166 303.638 248.038 303.387 248.786 302.914C249.533 302.441 250.124 301.767 250.486 300.973Z" fill="#2F2E41"/>
<path d="M223.473 320.679L236.047 320.679L242.03 288.901L223.472 288.902L223.473 320.679Z" fill="#FFB8B8"/>
<path d="M220.266 332.556L260.812 332.554V332.055C260.812 330.035 260.404 328.036 259.611 326.17C258.818 324.305 257.656 322.61 256.19 321.182C254.725 319.754 252.985 318.621 251.07 317.848C249.156 317.076 247.104 316.678 245.031 316.678H245.03L220.266 316.679L220.266 332.556Z" fill="#2F2E41"/>
<path d="M241.255 303.972L266.324 249.197C268.417 244.581 268.648 239.365 266.972 234.59C265.296 229.814 261.835 225.829 257.279 223.429L202.904 195.018L178.091 192.962L160.164 191.447L160.167 191.207C159.956 191.554 155.035 199.837 158.361 208.918C160.884 215.806 162.319 221.187 172.74 224.91C197.063 233.6 225.162 241.027 236.113 243.817C236.597 243.937 237.05 244.156 237.441 244.46C237.831 244.763 238.152 245.143 238.381 245.575C238.611 246.003 238.748 246.472 238.782 246.953C238.817 247.435 238.749 247.918 238.583 248.373L215.293 299.356C215.05 300.003 214.962 300.695 215.037 301.38C215.112 302.065 215.347 302.724 215.724 303.306C216.102 303.888 216.612 304.378 217.214 304.738C217.817 305.098 218.496 305.318 219.2 305.382L236.602 306.617C236.75 306.63 236.897 306.637 237.044 306.637C237.935 306.637 238.807 306.385 239.554 305.912C240.302 305.439 240.893 304.765 241.255 303.972Z" fill="#2F2E41"/>
<path d="M225.53 68.0443C228.749 54.8556 220.386 41.6216 206.85 38.4851C193.315 35.3486 179.732 43.4975 176.513 56.6862C173.294 69.8748 181.658 83.1089 195.193 86.2453C208.729 89.3818 222.311 81.2329 225.53 68.0443Z" fill="#FFB8B8"/>
<path d="M287.858 156.673C298.393 143.02 306.72 127.876 312.552 111.768C312.89 110.805 312.866 109.756 312.484 108.808C312.103 107.86 311.388 107.075 310.468 106.592L274.42 87.772C273.837 87.4652 273.19 87.2921 272.527 87.2659C271.865 87.2397 271.206 87.3611 270.599 87.6208C269.981 87.8825 269.432 88.2782 268.995 88.7776C268.557 89.2771 268.242 89.8672 268.074 90.5031C263.879 106.025 255.992 120.367 245.052 132.368C244.602 132.857 244.272 133.439 244.087 134.071C243.903 134.702 243.869 135.366 243.987 136.013C244.101 136.649 244.363 137.251 244.752 137.774C245.141 138.297 245.648 138.726 246.233 139.029L282.281 157.849C283.203 158.328 284.27 158.473 285.291 158.258C286.312 158.042 287.222 157.481 287.858 156.673Z" fill="#CCCCCC"/>
<path d="M285.398 154.872C285.204 155.108 284.932 155.27 284.628 155.331C284.325 155.392 284.009 155.348 283.735 155.207L247.686 136.386C247.511 136.297 247.36 136.17 247.244 136.014C247.128 135.859 247.05 135.679 247.017 135.49C246.979 135.289 246.99 135.083 247.048 134.888C247.106 134.692 247.209 134.512 247.35 134.362C258.613 122.008 266.732 107.243 271.051 91.2635C271.101 91.0661 271.197 90.8826 271.332 90.7274C271.467 90.5722 271.637 90.4496 271.828 90.3691C272.009 90.2904 272.206 90.2536 272.403 90.2615C272.601 90.2695 272.794 90.322 272.967 90.4149L309.015 109.235C309.288 109.379 309.501 109.611 309.617 109.891C309.733 110.172 309.745 110.483 309.65 110.771C303.923 126.591 295.744 141.463 285.398 154.872Z" fill="white"/>
<path d="M272.787 108.296L297.65 122.496C300.124 123.908 302.364 120.165 299.894 118.755L275.031 104.555C272.557 103.142 270.317 106.885 272.787 108.296Z" fill="#CCCCCC"/>
<path d="M268.341 116.238L293.204 130.438C295.678 131.851 297.918 128.108 295.448 126.697L270.585 112.497C268.111 111.085 265.871 114.828 268.341 116.238Z" fill="#CCCCCC"/>
<path d="M264.847 124.15L287.459 137.229C289.709 138.531 292.115 135.84 289.869 134.541L267.257 121.461C265.007 120.16 262.601 122.85 264.847 124.15Z" fill="#CCCCCC"/>
<path d="M257.966 132.123L282.829 146.323C285.303 147.736 287.543 143.993 285.074 142.582L260.21 128.382C257.736 126.97 255.496 130.713 257.966 132.123Z" fill="#CCCCCC"/>
<path d="M215.547 194.008L165.695 193.718L165.681 193.372C164.73 169.001 167.787 146.923 175.027 125.88C175.129 125.092 175.24 124.25 175.348 123.424C176.585 114.009 177.567 106.534 186.755 103.75C185.989 102.759 185.538 101.57 185.457 100.332C185.399 99.5089 185.509 98.6829 185.782 97.902C186.055 97.121 186.485 96.4008 187.046 95.7832C187.583 95.1868 188.237 94.7004 188.969 94.3525C189.7 94.0046 190.496 93.8021 191.309 93.7567L209.053 93.1679C209.986 93.1618 210.893 93.4616 211.63 94.019C212.981 94.9968 213.93 96.4114 214.308 98.0092C214.686 99.6071 214.468 101.284 213.693 102.739C213.484 103.145 213.404 103.329 213.373 103.41C214.004 106.63 215.876 110.455 217.856 114.503C220.692 120.299 223.907 126.868 224.733 133.896C225.179 137.691 224.994 141.531 224.184 145.268C223.814 147.281 223.729 149.335 223.931 151.371C224.093 154.391 224.246 157.241 222.494 159.998C222.048 160.746 221.537 161.543 220.937 162.425L218.473 168.164L215.547 194.008Z" fill="#6C63FF"/>
<path d="M140.735 228.115V128.862C140.739 125.628 142.059 122.527 144.406 120.24C146.753 117.953 149.936 116.667 153.255 116.663H156.718C160.037 116.667 163.219 117.953 165.567 120.24C167.914 122.527 169.234 125.628 169.238 128.862V228.115C169.234 231.349 167.914 234.45 165.567 236.737C163.219 239.024 160.037 240.31 156.718 240.314H153.255C149.936 240.31 146.753 239.024 144.406 236.737C142.059 234.45 140.739 231.349 140.735 228.115Z" fill="#3F3D56"/>
<path d="M274.421 138.768C274.064 139.205 273.742 139.668 273.458 140.154L222.21 143.8L215.181 133.748L198.225 142.101L208.894 161.074C209.755 162.607 211.104 163.826 212.738 164.548C214.371 165.27 216.201 165.457 217.952 165.08L275.034 152.784C276.565 154.335 278.545 155.395 280.709 155.824C282.874 156.252 285.121 156.028 287.151 155.181C289.182 154.335 290.9 152.906 292.077 151.085C293.254 149.264 293.834 147.137 293.74 144.987C293.646 142.837 292.882 140.766 291.551 139.049C290.219 137.332 288.383 136.051 286.285 135.375C284.188 134.7 281.93 134.663 279.811 135.269C277.691 135.875 275.812 137.096 274.421 138.768Z" fill="#FFB6B6"/>
<path d="M220.485 144.023L199.535 154.501C198.939 154.799 198.284 154.969 197.615 154.998C196.946 155.027 196.278 154.915 195.656 154.67C195.035 154.425 194.476 154.053 194.016 153.578C193.556 153.103 193.206 152.538 192.991 151.919L185.447 130.257C183.9 127.283 183.625 123.834 184.681 120.663C185.738 117.492 188.04 114.857 191.085 113.336C181.798 117.98 201.139 104.787 208.521 118.8L222.148 137.337C222.538 137.868 222.806 138.475 222.933 139.116C223.061 139.756 223.045 140.417 222.888 141.051C222.73 141.686 222.434 142.28 222.019 142.792C221.605 143.305 221.081 143.725 220.485 144.023Z" fill="#6C63FF"/>
<path d="M189.642 86.2394C188.125 86.2394 186.452 85.5273 184.566 84.0846C179.015 79.8379 175.048 73.9342 173.272 67.2792C171.497 60.6241 172.011 53.5851 174.736 47.2422C176.107 44.0501 178.672 39.7115 183.104 37.1688C186.29 35.3419 190.032 34.6819 193.289 34.2066C196.109 33.7949 198.965 33.467 201.776 33.2336C205.136 32.9536 209.016 32.7647 212.556 34.0748C215.149 35.0351 217.356 36.7309 219.49 38.3711C220.234 38.9422 221.004 39.5338 221.774 40.081C223.641 41.5001 225.795 42.5191 228.094 43.0714C228.579 43.1694 229.037 43.3677 229.436 43.6529C229.836 43.9382 230.168 44.3037 230.41 44.7248C230.658 45.1529 230.807 45.6276 230.85 46.117C230.893 46.6064 230.827 47.099 230.658 47.5615C230.325 48.4711 230.024 49.2912 230.632 50.1796C230.858 50.4926 231.158 50.747 231.508 50.9206C231.857 51.0942 232.245 51.1816 232.637 51.1753C232.845 51.172 233.049 51.2192 233.233 51.3125C233.416 51.4058 233.573 51.5424 233.689 51.7098C233.806 51.8756 233.88 52.067 233.904 52.2671C233.928 52.4672 233.901 52.6699 233.826 52.8577L233.729 53.1024C233.989 53.1261 234.24 53.2112 234.46 53.3503C234.679 53.4895 234.861 53.6786 234.989 53.9013C235.179 54.2184 235.253 54.5893 235.197 54.9526C235.142 55.3159 234.961 55.65 234.684 55.8996C232.436 57.9846 229.634 59.4139 226.594 60.0252C224.514 60.4228 222.374 60.418 220.296 60.0111L219.962 59.9476L220.003 59.5866C211.596 56.6653 204.008 61.623 199.682 67.2908L199.057 66.9065C199.165 66.6952 199.227 66.4651 199.241 66.2297C199.254 65.9944 199.219 65.7588 199.137 65.5371C199.05 65.2711 198.909 65.0245 198.724 64.8113C198.539 64.5981 198.313 64.4225 198.058 64.2947C197.543 64.0876 196.976 64.0338 196.43 64.1401C195.883 64.2464 195.381 64.508 194.987 64.8919C194.586 65.3018 194.276 65.7887 194.079 66.3215C193.881 66.8544 193.799 67.4214 193.839 67.9867C193.953 69.1847 194.266 70.3567 194.766 71.4566C194.97 71.9826 195.18 72.527 195.351 73.0756C196.308 76.192 196.053 79.5429 194.634 82.4875C193.979 83.8307 192.795 85.5434 190.873 86.0744C190.472 86.1846 190.058 86.2402 189.642 86.2394Z" fill="#2F2E41"/>
<path d="M599.118 334H0.882293C0.648724 333.999 0.424958 333.908 0.260038 333.747C0.0951191 333.586 0.00250244 333.368 0.00250244 333.14C0.00250244 332.913 0.0951191 332.694 0.260038 332.533C0.424958 332.372 0.648724 332.281 0.882293 332.281H599.118C599.352 332.281 599.576 332.371 599.742 332.532C599.907 332.694 600 332.912 600 333.14C600 333.368 599.907 333.587 599.742 333.748C599.576 333.909 599.352 334 599.118 334Z" fill="#CACACA"/>
</g>
<defs>
<clipPath id="clip0_4_906">
<rect width="600" height="334" fill="white"/>
</clipPath>
</defs>
</svg>
