<svg width="12" height="12" viewBox="0 0 12 12" fill="#FFF" xmlns="http://www.w3.org/2000/svg">
<path d="M1.05024 9.88907C0.757343 10.182 0.757343 10.6568 1.05024 10.9497C1.34313 11.2426 1.818 11.2426 2.1109 10.9497L6.00001 7.06062L9.88912 10.9497C10.182 11.2426 10.6569 11.2426 10.9498 10.9497C11.2427 10.6568 11.2427 10.182 10.9498 9.88907L7.06067 5.99996L10.9497 2.1109C11.2426 1.818 11.2426 1.34313 10.9497 1.05024C10.6568 0.757343 10.182 0.757343 9.88907 1.05024L6.00001 4.9393L2.11095 1.05024C1.81805 0.757343 1.34318 0.757343 1.05029 1.05024C0.757393 1.34313 0.757393 1.818 1.05029 2.1109L4.93935 5.99996L1.05024 9.88907Z" fill="#fff"/>
</svg>
